<?xml version="1.0" encoding="UTF-8" standalone="no"?>
<!DOCTYPE svg PUBLIC "-//W3C//DTD SVG 1.1//EN" "http://www.w3.org/Graphics/SVG/1.1/DTD/svg11.dtd">
<svg width="100%" height="100%" viewBox="0 0 96 96" version="1.1" xmlns="http://www.w3.org/2000/svg" xmlns:xlink="http://www.w3.org/1999/xlink" xml:space="preserve" style="fill-rule:evenodd;clip-rule:evenodd;stroke-linejoin:round;stroke-miterlimit:1.41421;">
    <g id="path6455" transform="matrix(1,0,0,1,268,-635.291)">
        <path d="M-268,700.156L-268,666.426C-268,639.183 -264.112,635.291 -236.897,635.291L-203.103,635.291C-175.888,635.291 -172,639.183 -172,666.426L-172,700.156C-172,727.399 -175.888,731.291 -203.103,731.291L-236.897,731.291C-264.112,731.291 -268,727.399 -268,700.156Z" style="fill:rgb(197,85,31);fill-rule:nonzero;"/>
    </g>
    <g id="Layer1">
        <g transform="matrix(0.32945,0,0,0.291592,0.384997,4.40231)">
            <path d="M178.5,49.5L74.25,49.5L74.25,247.5L222.75,247.5L222.75,93.75L178.5,49.5Z" style="fill:rgb(236,240,241);fill-rule:nonzero;"/>
        </g>
        <g transform="matrix(0.32945,0,0,0.291592,0.384997,4.40231)">
            <path d="M178.5,93.75L222.75,93.75L178.5,49.5L178.5,93.75Z" style="fill:rgb(189,195,199);fill-rule:nonzero;"/>
        </g>
        <g transform="matrix(0.32945,0,0,0.291592,0.384997,4.40231)">
            <path d="M127.25,110.75L95.5,110.75L95.5,79L127.25,79L127.25,110.75ZM102.5,103.75L120.25,103.75L120.25,86L102.5,86L102.5,103.75Z" style="fill:rgb(189,195,199);fill-rule:nonzero;"/>
        </g>
        <g transform="matrix(0.32945,0,0,0.291592,0.384997,4.40231)">
            <path d="M127.25,164.375L95.5,164.375L95.5,132.625L127.25,132.625L127.25,164.375ZM102.5,157.375L120.25,157.375L120.25,139.625L102.5,139.625L102.5,157.375Z" style="fill:rgb(189,195,199);fill-rule:nonzero;"/>
        </g>
        <g transform="matrix(0.32945,0,0,0.291592,0.384997,4.40231)">
            <path d="M127.25,218L95.5,218L95.5,186.25L127.25,186.25L127.25,218ZM102.5,211L120.25,211L120.25,193.25L102.5,193.25L102.5,211Z" style="fill:rgb(189,195,199);fill-rule:nonzero;"/>
        </g>
        <g transform="matrix(0.32945,0,0,0.291592,0.384997,4.40231)">
            <path d="M110.333,157.198L97.803,144.666L104.168,138.303L110.333,144.47L131.542,123.261L137.906,129.625L110.333,157.198Z" style="fill:rgb(50,55,59);fill-rule:nonzero;"/>
        </g>
    </g>
</svg>
